<svg display="none"> 
    <symbol id="facebook" viewBox="0 0 11 22" xmlns="http://www.w3.org/2000/svg">
        <path d="M8.25149 -5.16187e-06C8.80717 -5.16187e-06 9.3748 0.0314144 9.93047 0.0565501C10.2949 0.0565501 10.6594 0.125673 11 0.169661V3.70751H9.59587C9.32102 3.70751 9.0402 3.70751 8.76534 3.70751C7.87507 3.70751 7.21782 4.09083 7.17002 5.25963C7.14014 6.10796 7.12222 7.968 7.12222 8.06855H10.8387C10.6594 9.42587 10.4921 10.7329 10.3129 12.0463H7.12222L7.05052 21.9937H3.13091L3.20261 12.04H0L0.0298751 8.08111H3.25041V7.79205C3.25041 6.994 3.25041 6.19594 3.25041 5.39788C3.2534 4.89034 3.29536 4.38389 3.37588 3.88346C3.46374 3.29322 3.6628 2.72738 3.96137 2.21914C4.25995 1.71089 4.65203 1.27048 5.11461 0.923731C5.94246 0.31914 6.92695 -0.00332351 7.93482 -5.16187e-06H8.25149Z"/>
    </symbol>
    <symbol id="twitter" viewBox="0 0 20 18" xmlns="http://www.w3.org/2000/svg">
        <path d="M20 2.90419C19.8597 3.1164 19.7056 3.31931 19.5385 3.51163C19.105 4.04074 18.6021 4.51057 18.0431 4.90875L17.9692 5.03631C17.9915 5.64506 17.9627 6.25458 17.8831 6.85863C17.7147 8.10704 17.3515 9.32217 16.8062 10.4608C16.2403 11.6334 15.4836 12.7066 14.5662 13.6377C13.0377 15.2039 11.0708 16.2846 8.91692 16.7417C8.16527 16.8955 7.40122 16.9829 6.63385 17.0029H6.26462C4.08728 17.0101 1.95286 16.4054 0.110769 15.2595L0 15.1867C0.318816 15.2207 0.639328 15.2369 0.96 15.2352C2.03632 15.2372 3.10258 15.0308 4.09846 14.6278C4.80071 14.3452 5.45942 13.967 6.05539 13.504C5.20783 13.4872 4.38693 13.2086 3.70809 12.7074C3.02925 12.2062 2.52659 11.5076 2.27077 10.7098C2.52011 10.7581 2.7736 10.7825 3.02769 10.7827C3.36327 10.7803 3.69758 10.7416 4.02462 10.6673L4.08615 10.6369C3.54172 10.5294 3.02565 10.3121 2.5703 9.99851C2.11495 9.68493 1.73014 9.28186 1.44 8.8146C1.04069 8.17003 0.837739 7.42565 0.855385 6.67033C1.42314 6.97346 2.05617 7.13801 2.70154 7.15021C1.85813 6.57508 1.26495 5.70764 1.04 4.72044C0.782135 3.71024 0.939182 2.64039 1.47692 1.74398C2.49713 2.99409 3.77209 4.01861 5.21917 4.75112C6.66625 5.48363 8.25312 5.90778 9.87692 5.99607C9.87692 5.83206 9.83385 5.69235 9.81538 5.55264C9.69649 4.62768 9.9146 3.69112 10.4308 2.91027C10.7328 2.42436 11.1389 2.00949 11.6204 1.6947C12.1019 1.37992 12.6473 1.17284 13.2185 1.08794C13.4655 1.03452 13.7166 1.002 13.9692 0.990753C14.4995 0.995353 15.0235 1.10529 15.5098 1.31401C15.9961 1.52273 16.4349 1.82596 16.8 2.20564C16.8385 2.24609 16.8915 2.27007 16.9477 2.27245H17.0154C17.8555 2.08728 18.6611 1.77371 19.4031 1.34307H19.4585C19.1616 2.25727 18.5441 3.03697 17.7169 3.54201C18.506 3.44341 19.2756 3.22841 20 2.90419Z"/>
    </symbol>
    <symbol id="instagram" viewBox="0 0 19 22" xmlns="http://www.w3.org/2000/svg">
        <path d="M14.6032 4.47327C14.7523 4.47326 14.9 4.5044 15.0377 4.56491C15.1754 4.62541 15.3003 4.71406 15.4052 4.82574C15.5101 4.93741 15.593 5.06989 15.6489 5.2155C15.7049 5.36111 15.7329 5.51697 15.7313 5.67404C15.7265 5.99095 15.6049 6.29348 15.392 6.5176C15.1792 6.74171 14.8919 6.86982 14.5909 6.87482C14.2885 6.87482 13.9984 6.74831 13.7845 6.52312C13.5707 6.29793 13.4505 5.99251 13.4505 5.67404C13.4505 5.35558 13.5707 5.05015 13.7845 4.82497C13.9984 4.59978 14.2885 4.47327 14.5909 4.47327H14.6032Z"/>
        <path
          d="M18.8828 6.01534C19.0238 7.59055 19.1158 15.0534 18.6743 16.7707C18.4593 17.8145 17.9392 18.7613 17.1871 19.478C16.435 20.1947 15.4886 20.6454 14.4807 20.7668C12.7409 20.947 10.9928 21.0225 9.24484 20.9927C7.48049 21.0461 5.71495 20.9467 3.96604 20.6958C2.9776 20.4845 2.0785 19.9479 1.39856 19.1635C0.718621 18.379 0.29302 17.3874 0.183208 16.3317C-0.0742941 14.6467 -0.0988182 6.80294 0.361008 5.10507C0.592998 4.09189 1.11385 3.17771 1.85363 2.48531C2.5934 1.7929 3.51666 1.35541 4.49944 1.23161C6.08081 1.04378 7.67207 0.963995 9.26323 0.992742C11.0351 0.992742 12.8254 1.04439 13.8983 1.10249C15.1906 1.13526 16.4261 1.6685 17.3684 2.60023C18.2583 3.50118 18.7981 4.71849 18.8828 6.01534ZM17.0435 16.0024C17.3024 12.7278 17.3434 9.43804 17.1661 6.15736C17.1269 5.36099 16.8197 4.60534 16.2995 4.02572C15.7794 3.4461 15.0803 3.08037 14.3274 2.99403C12.75 2.84186 11.1659 2.77936 9.58205 2.80682C7.68756 2.80682 5.80534 2.85846 4.97766 2.9553C4.21711 3.00257 3.49653 3.32974 2.9418 3.87963C2.38707 4.42952 2.03348 5.16717 1.94281 5.96369C1.68252 9.32288 1.65998 12.6978 1.87537 16.0605C1.93765 16.7309 2.19754 17.364 2.61863 17.871C3.03971 18.3781 3.60089 18.7337 4.22354 18.8882C5.91437 19.1445 7.62332 19.2439 9.33067 19.1851C11.3233 19.1851 13.279 19.1206 14.0148 19.0366C14.7849 18.9971 15.5164 18.67 16.0781 18.1139C16.6399 17.5579 16.9952 16.8093 17.0803 16.0024"/>
        <path
          d="M9.53894 5.86771C10.1796 5.86763 10.8139 6.00173 11.4049 6.26222C11.9959 6.5227 12.5318 6.90436 12.9814 7.38498C13.431 7.8656 13.7853 8.43559 14.0237 9.06176C14.2622 9.68793 14.3799 10.3578 14.3702 11.0323C14.3605 12.3953 13.8394 13.6991 12.9206 14.6593C12.0019 15.6194 10.7599 16.1583 9.46536 16.1582C8.82444 16.1592 8.18976 16.0257 7.59839 15.7655C7.00701 15.5053 6.47079 15.1237 6.02103 14.6429C5.57126 14.1621 5.21698 13.5917 4.97885 12.9652C4.74073 12.3386 4.62354 11.6684 4.63413 10.9936C4.64384 9.63057 5.16487 8.32686 6.08365 7.36667C7.00243 6.40648 8.24445 5.86767 9.53894 5.86771ZM9.47149 14.3119C10.3034 14.3087 11.1011 13.9633 11.6944 13.3494C12.2878 12.7354 12.6298 11.9016 12.6474 11.0259C12.6621 10.1537 12.3476 9.31104 11.7729 8.68284C11.1981 8.05465 10.4101 7.69229 9.58185 7.67532H9.5512C8.71933 7.6785 7.92159 8.02391 7.32824 8.63784C6.73489 9.25176 6.39293 10.0856 6.37533 10.9613C6.36721 11.3961 6.44111 11.8282 6.59277 12.2327C6.74442 12.6371 6.9708 13.0059 7.2588 13.3175C7.54679 13.6292 7.89067 13.8776 8.27049 14.0482C8.65032 14.2189 9.05854 14.3085 9.47149 14.3119Z"/>
    </symbol>
    <symbol id="youtube" viewBox="0 0 20 16" xmlns="http://www.w3.org/2000/svg">
        <path d="M19.4843 2.79758C20.1964 4.67007 20.1714 11.5359 19.3094 13.4084C19.0757 13.881 18.6942 14.2645 18.2226 14.5007C17.548 14.8502 13.6317 15.0125 9.79661 15.0125C6.27381 15.0125 2.80722 14.8752 2.00148 14.6068C1.64202 14.4977 1.31469 14.3025 1.04798 14.0382C0.781267 13.7738 0.583255 13.4483 0.471184 13.09C-0.153426 11.2612 -0.315824 3.62148 0.977118 2.111C1.39812 1.60976 1.99923 1.29373 2.65107 1.23093C4.19386 1.0624 7.16075 0.981262 10.0839 0.981262C13.7316 0.981262 17.3044 1.1061 17.9852 1.35576C18.3287 1.46571 18.6424 1.65283 18.9023 1.90276C19.1621 2.1527 19.3612 2.4588 19.4843 2.79758ZM7.48555 10.9991L13.7316 7.77217L7.55426 4.539C7.55426 6.6986 7.55426 8.83325 7.50429 10.9991"/>
    </symbol>

    <symbol id="facebook-b" viewBox="0 0 14 27" xmlns="http://www.w3.org/2000/svg">
        <path d="M9.95605 3.05936e-05C10.6265 3.05936e-05 11.3114 0.0379407 11.9819 0.0682688C12.4216 0.0682688 12.8614 0.151671 13.2723 0.204745V4.47342H11.5781C11.2465 4.47342 10.9077 4.47342 10.5761 4.47342C9.50186 4.47342 8.70884 4.93593 8.65117 6.34618C8.61512 7.36976 8.59349 9.61403 8.59349 9.73535H13.0777C12.8614 11.3731 12.6595 12.9501 12.4433 14.5348H8.59349L8.50698 26.5371H3.77768L3.86419 14.5272H0L0.0360465 9.75051H3.92186V9.40174C3.92186 8.43882 3.92186 7.4759 3.92186 6.51299C3.92547 5.90061 3.9761 5.28953 4.07326 4.68572C4.17927 3.97356 4.41944 3.29083 4.77969 2.67759C5.13995 2.06436 5.61302 1.53296 6.17117 1.11459C7.17002 0.385103 8.35789 -0.00397324 9.57396 3.05936e-05H9.95605Z"/>
    </symbol>
    <symbol id="twitter-b" viewBox="0 0 25 20" xmlns="http://www.w3.org/2000/svg">
        <path d="M24.4038 2.91735C24.2346 3.17339 24.0486 3.41822 23.847 3.65028C23.3239 4.28868 22.7172 4.85556 22.0427 5.336L21.9536 5.48991C21.9804 6.22441 21.9457 6.95985 21.8496 7.68869C21.6465 9.19498 21.2082 10.6611 20.5502 12.0349C19.8675 13.4498 18.9545 14.7447 17.8475 15.8681C16.0033 17.7578 13.6301 19.0618 11.0313 19.6134C10.1243 19.799 9.20246 19.9044 8.27657 19.9285H7.83106C5.20395 19.9372 2.6286 19.2076 0.405983 17.825L0.272331 17.7371C0.657007 17.7782 1.04373 17.7977 1.43064 17.7957C2.7293 17.7981 4.01583 17.549 5.21743 17.0628C6.06475 16.7218 6.85953 16.2654 7.57861 15.7069C6.55597 15.6865 5.5655 15.3504 4.74642 14.7456C3.92735 14.1409 3.32085 13.298 3.01219 12.3354C3.31303 12.3937 3.61888 12.4232 3.92547 12.4234C4.33038 12.4205 4.73374 12.3738 5.12833 12.2841L5.20258 12.2475C4.54568 12.1178 3.923 11.8555 3.37359 11.4772C2.82417 11.0988 2.35987 10.6125 2.0098 10.0487C1.528 9.27099 1.28313 8.37284 1.30442 7.46148C1.98945 7.82724 2.75325 8.02577 3.53194 8.04049C2.5143 7.34655 1.79859 6.29992 1.52717 5.10879C1.21604 3.88991 1.40553 2.59905 2.05435 1.51747C3.2853 3.02582 4.82365 4.26198 6.56965 5.14581C8.31566 6.02964 10.2303 6.54141 12.1896 6.64793C12.1896 6.45004 12.1376 6.28147 12.1153 6.1129C11.9719 4.99687 12.235 3.86684 12.8578 2.92468C13.2223 2.33839 13.7122 1.83782 14.2932 1.45801C14.8742 1.07821 15.5323 0.828341 16.2214 0.72591C16.5194 0.661448 16.8225 0.622217 17.1273 0.608643C17.7671 0.614193 18.3993 0.746839 18.9861 0.998677C19.5729 1.25051 20.1023 1.61639 20.5428 2.07449C20.5893 2.1233 20.6532 2.15223 20.721 2.15511H20.8027C21.8163 1.93169 22.7883 1.55334 23.6836 1.03374H23.7504C23.3922 2.1368 22.6471 3.07756 21.6491 3.68692C22.6012 3.56796 23.5298 3.30854 24.4038 2.91735Z"/>
    </symbol>
    <symbol id="instagram-b" viewBox="0 0 24 25" xmlns="http://www.w3.org/2000/svg">
        <path d="M18.0237 4.39722C18.2037 4.39721 18.3819 4.43479 18.548 4.50779C18.7141 4.58079 18.8648 4.68775 18.9914 4.8225C19.118 4.95724 19.2179 5.11709 19.2855 5.29278C19.353 5.46847 19.3868 5.65652 19.3848 5.84604C19.3791 6.22842 19.2323 6.59344 18.9755 6.86385C18.7187 7.13427 18.372 7.28884 18.0089 7.29487C17.6439 7.29487 17.294 7.14222 17.0359 6.87052C16.7779 6.59881 16.6329 6.23029 16.6329 5.84604C16.6329 5.46179 16.7779 5.09328 17.0359 4.82157C17.294 4.54986 17.6439 4.39722 18.0089 4.39722H18.0237Z"/>
        <path d="M23.1873 6.25795C23.3575 8.15856 23.4685 17.1631 22.9358 19.2351C22.6764 20.4946 22.0489 21.6369 21.1414 22.5017C20.2339 23.3664 19.0919 23.9102 17.8759 24.0567C15.7767 24.2742 13.6675 24.3652 11.5584 24.3293C9.42961 24.3937 7.29936 24.2738 5.18917 23.971C3.99654 23.7161 2.91171 23.0686 2.09131 22.1222C1.27091 21.1757 0.75739 19.9792 0.624894 18.7054C0.314198 16.6724 0.284607 7.20825 0.839422 5.15965C1.11934 3.93717 1.74779 2.83414 2.64038 1.9987C3.53297 1.16326 4.64696 0.635401 5.83275 0.486017C7.74079 0.259395 9.66077 0.163124 11.5806 0.19781C13.7185 0.19781 15.8786 0.260125 17.1732 0.330229C18.7324 0.369763 20.2231 1.01316 21.3602 2.13737C22.4339 3.22442 23.0852 4.6932 23.1873 6.25795ZM20.9681 18.3081C21.2805 14.357 21.33 10.3877 21.116 6.42932C21.0687 5.46843 20.698 4.55668 20.0705 3.85733C19.4429 3.15797 18.5994 2.71669 17.691 2.61252C15.7877 2.42891 13.8763 2.3535 11.9653 2.38663C9.67947 2.38663 7.40842 2.44894 6.40976 2.56578C5.49211 2.62282 4.62266 3.01757 3.95334 3.68106C3.28402 4.34454 2.85739 5.23457 2.74798 6.19563C2.43393 10.2488 2.40673 14.3209 2.66661 18.3782C2.74176 19.1871 3.05534 19.9509 3.56341 20.5627C4.07148 21.1745 4.74858 21.6037 5.49986 21.79C7.53997 22.0993 9.60195 22.2192 11.662 22.1483C14.0662 22.1483 16.426 22.0704 17.3137 21.9691C18.2429 21.9214 19.1255 21.5267 19.8033 20.8558C20.4812 20.1849 20.9098 19.2817 21.0125 18.3081"/>
        <path d="M11.9133 6.07983C12.6863 6.07974 13.4517 6.24155 14.1647 6.55584C14.8778 6.87014 15.5244 7.33064 16.0669 7.91054C16.6094 8.49045 17.0369 9.17818 17.3246 9.9337C17.6122 10.6892 17.7543 11.4975 17.7425 12.3113C17.7308 13.9559 17.1022 15.529 15.9936 16.6875C14.885 17.846 13.3864 18.4962 11.8245 18.4961C11.0512 18.4973 10.2854 18.3362 9.57188 18.0222C8.85833 17.7083 8.21134 17.2479 7.66867 16.6677C7.126 16.0876 6.69852 15.3995 6.41121 14.6435C6.12389 13.8875 5.9825 13.0788 5.99527 12.2646C6.00699 10.62 6.63566 9.04699 7.74423 7.88845C8.85281 6.7299 10.3514 6.07979 11.9133 6.07983ZM11.8319 16.2683C12.8356 16.2645 13.7982 15.8478 14.5141 15.107C15.23 14.3663 15.6426 13.3602 15.6638 12.3036C15.6817 11.2512 15.3022 10.2345 14.6087 9.47651C13.9152 8.71854 12.9644 8.28133 11.9651 8.26086H11.9281C10.9244 8.26469 9.96185 8.68145 9.24592 9.4222C8.53 10.163 8.11739 11.169 8.09617 12.2257C8.08636 12.7502 8.17554 13.2716 8.35852 13.7596C8.5415 14.2477 8.81465 14.6926 9.16213 15.0686C9.50962 15.4447 9.92453 15.7443 10.3828 15.9503C10.8411 16.1562 11.3337 16.2643 11.8319 16.2683Z"/>
    </symbol>
    <symbol id="youtube-b" viewBox="0 0 25 18" xmlns="http://www.w3.org/2000/svg">
        <path d="M23.8381 2.99523C24.6972 5.25454 24.6671 13.5386 23.6271 15.798C23.3451 16.3682 22.8847 16.8309 22.3157 17.1159C21.5018 17.5376 16.7765 17.7334 12.1491 17.7334C7.89861 17.7334 3.71592 17.5677 2.74373 17.2439C2.31002 17.1123 1.91507 16.8768 1.59326 16.5579C1.27145 16.2389 1.03253 15.8462 0.897311 15.4139C0.143673 13.2073 -0.0522733 3.98933 1.50776 2.16682C2.01573 1.56204 2.74101 1.18072 3.52751 1.10495C5.389 0.901614 8.96878 0.803711 12.4958 0.803711C16.8971 0.803711 21.2079 0.954331 22.0293 1.25557C22.4438 1.38823 22.8223 1.61401 23.1358 1.91557C23.4493 2.21714 23.6896 2.58647 23.8381 2.99523ZM9.36067 12.891L16.8971 8.99745L9.44357 5.09639C9.44357 7.70212 9.44357 10.2777 9.38328 12.891"/>
    </symbol>
</svg>